<?xml version="1.0" encoding="UTF-8"?>
<svg version="1.1" viewBox="0 0 960 848" width="960" height="848" xmlns="http://www.w3.org/2000/svg">
<path transform="translate(0)" d="m0 0h960v848h-960z" fill="#FDFDFD"/>
<path transform="translate(481)" d="m0 0h33l1 4-5 36-3 48-1 35-2 31-3 46v29l7-28 7-20 4-9 8-16 7-15 9-31 5-30 3-24 3-44 1-7 13 1 23 5 1 1v8l-6 35-5 25-5 21-11 33-9 20-12 21-10 17-10 21-7 19-2 11 10-14 11-13 7-8 10-10 5-4h2v-2l16-11 19-12 10-8 11-9 6-6h2v-2l4-4h2v-2h2v-2h2l2-4 12-16 7-11 10-21 8-24 4-15 6 1 24 14 12 8-2 10-9 24-5 11-6 11-8 11-11 11-16 11-16 9-33 16-12 6-10 8-16 16-5 7h-2l-2 4-10 13-6 8 32-16 19-10 18-7 29-7 31-5 19-8 19-12 3-1v-2l11-9 6-7 5-5 8-11h2l1-4 8-12 8-16 3-1 8 7v2l4 2 7 8 10 11 7 9v2h2l3 4-1 4-10 10h-2v2l-8 7-6 5h-2v2l-14 10-16 10-17 8-19 6-14 3-31 1-20 2-21 5-18 7-20 11-7 8-4 6 29-9 26-6 24-4 22-2h12l11 1h37l17-3 14-5 12-6 17-12 16-13 4-2v-2l8-7 5-2 8 13 13 25 11 25 9 25 5 18-1 5h-336l-1-1-2-13-8-15-7-7v-2l-5-2-10-5-9-2h-14l-11 3-11 6-4 2-2 4-6 8-4 8-4 16h-342l-1-3 7-24 10-27 11-24 9-17 6-10 2-1 16 10 19 12 16 9 20 9 16 5 15 3 8 1 28 1 28-2h36l16 3 12 3 19 7 9 4v-2l-4-2-11-9-10-7-15-7-19-5-28-4h-19l-17-1-15-3-15-5-16-8-9-6v-2l-4-2-5-4v-2l-4-2-7-8-3-4v-2h-2l-11-16-8-13 1-5 7-8 12-13 16-16 3-1 4 9 8 20 8 16 9 12 5 5v2l4 2 12 9 15 8 21 8 37 8 25 7 21 8 16 7 19 10 9 5-2-4-1-4h-2l-7-11-9-11-9-10-8-6v-2l-5-2-11-7-13-6-16-6-19-8-18-11-6-4v-2l-4-2-10-10-9-15-7-19-6-30v-6l10-7 26-14 3-1 2 5 4 24 8 25 10 19 10 14 12 13 13 13 2 1v2l5 2 26 14 16 10 9 6v2l4 2 7 6 15 20 2 4 4 2 7 8 4 3-8-24-10-24-12-25-5-9v-3h-2l-13-24-8-21-6-22-4-24-2-23-1-27 2-2 27-5 5 1v38l1 21 3 24 3 17 6 25 3 10 8 16 8 17 6 15 7 21 4 15v-103l-3-25-2-23-2-49v-22z" fill="#34CC32"/>
<path transform="translate(520,275)" d="m0 0h3l11 32v3h12v4l-5 6-9 4-4 2v11l6 23v34l12 13 9 12 5 13 2 12 6 16 9 16 5 12 1 8v12l5 4v2l4 2 8 6 2 8 3 22 3 8 1 23 10 15 5 7 6 11 10 19 6 16 11 16 10 2h26l-1 3-18 12-22 13-25 12-23 9-19 6-25 6-24 4-22 2h-42l-33-4-28-6-27-8-25-10-23-11-20-12-18-12-2-1v-2l-4-2 3-1 14 2h22l16-3v-2h2l1-3h2v-2l5-5 3-8 3-14 3-16 4-19 7-24 12-31 15-33 10-20 11-20 8-12 11-17 12-19 2-3-1-6-4-11-3-18 3-19-16-9-10-6-19-14v-2l-3-1-7-8-11-12v-2h67l2 1 3 8 1 3 4 2 3 1h8l6-3h2v-2h2l2-5 5-14 10-9h2v-2h2v-2l8-7z" fill="#999"/>
<path transform="translate(638,740)" d="m0 0 8 1 6 4 4 7 1 8-3 8-8 7-19 8h-4l2-4-2-9-7-16-5-1 1-3 15-7z" fill="#999"/>
<path transform="translate(298,714)" d="m0 0 6 1 14 8 8 7 3 8-1 8-4 6-5 4-2 1h-13l-15-8-8-5 1-2h6l2-5 9-16 1-4-3-1z" fill="#999"/>
<path transform="translate(744,674)" d="m0 0 8 1 6 4 4 6 1 3v8l-4 8-8 8h-2v2l-8 7h-3l1-6-9-11-6-7-4-1-3 1v-3l13-13 10-6z" fill="#999"/>
<path transform="translate(224,652)" d="m0 0 6 4 7 6v2l3 1v2h2l6 10v8l-4 8-8 5h-12l-9-6-9-9-2-1v-2h-2l-1-4h7l10-10 6-7-1-5z" fill="#999"/>
<path transform="translate(874,432)" d="m0 0 9 2 7 6 3 7v12l-5 10-8 5h-9l-7-3v-2l-3-1-4-7v-15l5-8 5-4z" fill="#999"/>
<path transform="translate(160,558)" d="m0 0h2l10 18 1 4v8l-5 5h-8l-5-3-2 5-3 5-2 7h-2l-3-7 1-7 6-10-1-3-8 4-2 6-3-3-6-13h4l3 1 22-11v-5z" fill="#999"/>
<path transform="translate(451,767)" d="m0 0h16l11 2 6 5v8l-4 5-3 1 2 6 4 7 3 2v2h-8l-5-3-6-12-4-2v11l4 2v2h-11l-7-1v-3l4-2 2-25v-2l-4-1z" fill="#999"/>
<path transform="translate(408,759)" d="m0 0 16 2 9 3 5 5v9l-5 5-3 1h-7l-7-2v12h3v3l-13-2-5-1v-3l5-2 4-20v-6l-3-1z" fill="#999"/>
<path transform="translate(839,529)" d="m0 0 2 1v6l9 3 18 8 1 3-1 2-20 7-13 5 3 2 13 6h5v-2l3 1-5 12h-3v-5l-15-7-7-3-7 1 1-5 3-6 12-5 16-6-12-6-5-1-1 3-3-1 5-12z" fill="#999"/>
<path transform="translate(93,393)" d="m0 0 2 1 1 3 28 1 1-5h2l1 5v7l-2 3h-2v2h-2v2h-2v2h-2v2h-2v2h-2v2l-5 4-1 2h-2v2l14-1 4-1 2-4 2 1v14l-3-1-1-3-31-1 1-5 23-23 1-2-22 2-1 4-3-1v-13z" fill="#999"/>
<path transform="translate(585,757)" d="m0 0 4 1 13 19 5 7 5 2v2l-16 4-3-1 4-5-4-6-11 1-1 10h5l1 3-14 3-1-3 4-4 3-24v-7z" fill="#999"/>
<path transform="translate(674,721)" d="m0 0 4 1 13 11 11 8 5 1v2l-14 8-3-1 1-2h2l-2-5-3-2-5 1-5 3 1 8h6v3l-11 6h-2l1-4-1-13-3-18 1-5z" fill="#999"/>
<path transform="translate(270,694)" d="m0 0 5 1 3 2-1 8-6 23 1 8-4-1-12-9v-2l7 1 1-9-7-5-5 2-3 3 3 4-4 1-10-8 1-2h7l10-7 12-8h2z" fill="#999"/>
<path transform="translate(808,590)" d="m0 0 8 1 21 4h6l4-1-2 6-7 10-3-1 2-5-10-2-2 5-2 3 1 4 2 3 4 1v-2h3l-1 4-6 9-2-1-1-7-12-15-7-9z" fill="#999"/>
<path transform="translate(888,336)" d="m0 0h3l2 18h-3l-1-3-6 1-2 1 1 11 2 1h7l1-4h2l2 10-1 5-4-4-27-6-6-2-1-7 8-5 12-7 9-5z" fill="#999"/>
<path transform="translate(868,442)" d="m0 0h13l6 3 3 3 1 8-4 6-7 3h-9l-8-3-4-6 1-8 6-5z" fill="#FDFDFD"/>
<path transform="translate(852,487)" d="m0 0 8 1 2 1-1 3-8 3-3 5v7l4 6 7 3h11l5-4 2-5v-4l-3-1h-7l-1 3h-3l2-10 3-8 2 1 1 3 10 4v12l-3 10-4 5-8 4h-8l-7-3-5-6-2-4v-12l5-13z" fill="#999"/>
<path transform="translate(774,639)" d="m0 0 4 2 3 4h-6l-7 8v3l7 5 6-7v-6l4 2 5 4v3h-5l-6 7 5 5 4 1 6-7 1-4-1-4 3-1v2l3 1v2h2l-2 5-9 10-8 10h-3l1-5-5-5-13-11-3-1-5 1 2-4 9-11 6-8z" fill="#999"/>
<path transform="translate(143,517)" d="m0 0 3 1 10 26-2 3-6 1 2-6-3-8v-3l-11 4 4 9 4 1v3l-8 3h-3l1-8-3-6-9 4 3 10 2 2 5 2v2l-9 2-11-28 1-2 3 1v2l13-4 13-5z" fill="#999"/>
<path transform="translate(344,738)" d="m0 0 6 1 22 9 1 3-3 6-2-1-1-5-12-5-2 7v4l5 2h5l3-1-1 5-2 6h-3v-5l-10-3-4 11 10 3 5-1 4-1-2 6-3 3-28-11v-3h6l3-10 5-12-1-5z" fill="#999"/>
<path transform="translate(130,342)" d="m0 0h2l-1 14-1 4h-3v-5l-15-2h-9l-3 1-1 4v9l1 3 15 3h9l2-3h2l-1 13-3 1-1-4-8-2-12-2-6-4-3-4v-13l3-7 3-3 3-1h9l16 1z" fill="#999"/>
<path transform="translate(558,763)" d="m0 0h5v3h-3l-3 11-7 24h-5l-12-19-6-9-5-3 1-2 13-2h6v3l-5 1 6 11 5 8 4-13 2-8-5-1 1-3z" fill="#999"/>
<path transform="translate(131,472)" d="m0 0h3l4 15v4l-3-1-1-2-5 1-13 10 21 4v-5h3l3 11-1 3h-2l-4-4-32-6-1-4 4-4 12-9 10-8z" fill="#999"/>
<path transform="translate(632,745)" d="m0 0 8 1 6 5 3 8-1 9-7 6-6 1-3-4-8-20 1-4z" fill="#FDFDFD"/>
<path transform="translate(309,722)" d="m0 0 7 4 4 5 1 9-5 8-4 4-8 1-7-3-2-2 1-5 12-20z" fill="#FDFDFD"/>
<path transform="translate(232,663)" d="m0 0 6 5 3 6v7l-4 6-5 4-5 2-7-1-7-6 1-4 5-5 12-13z" fill="#FDFDFD"/>
<path transform="translate(738,681)" d="m0 0h7l7 4 4 7 1 5-2 7-5 5h-5l-12-14-5-6 1-3 6-4z" fill="#FDFDFD"/>
<path transform="translate(178,603)" d="m0 0h8l6 5 4 8-1 4-4 3h-2l1-10-2-4-5-1-1 22-4 5-2 1h-7l-6-4-5-9-1-4 3-3h2l1-3h2l-1 6v8l2 2h6l1-3v-16l3-5z" fill="#999"/>
<path transform="translate(886,387)" d="m0 0 9 3 1 1v28l-3 1-1-4h-28l-1 4-3-1v-17h3l1 4h27v-11l-5-5z" fill="#999"/>
<path transform="translate(507,768)" d="m0 0h8v3l-3 1v28l4 1v3h-18v-3l4-1v-15l-1-12-4-2v-2z" fill="#999"/>
<path transform="translate(205,630)" d="m0 0 4 2 9 11-1 2-7-1-10 9-6 5h-2v8l-7-6-5-6v-3l6 1 9-7 10-9z" fill="#999"/>
<path transform="translate(128,447)" d="m0 0h2l2 13v5h-3l-1-3-18 1-10 1v5h-3l-2-18h3l1 3h9l16-2 2-1z" fill="#999"/>
<path transform="translate(465,770)" d="m0 0 7 1 4 5-2 8-4 2-7-1 1-14z" fill="#FDFDFD"/>
<path transform="translate(420,764)" d="m0 0 6 1 4 4-1 8-3 3h-7l-2-1z" fill="#FDFDFD"/>
<path transform="translate(163,571)" d="m0 0h3l2 3v8h-2v2l-6 2-5-2-3-6 8-5z" fill="#FDFDFD"/>
<path transform="translate(584,766)" d="m0 0 4 5 2 5-7 2-1-4 1-7z" fill="#FDFDFD"/>
<path transform="translate(268,701)" d="m0 0 1 3-2 8-4-1-4-4z" fill="#FDFDFD"/>
<path transform="translate(674,731)" d="m0 0 5 2 4 3v3l-7 3z" fill="#FDFDFD"/>
<path transform="translate(874,356)" d="m0 0h3l1 8-11-2v-2z" fill="#FDFDFD"/>
<path transform="translate(812,599)" d="m0 0 8 1 4 2-4 6h-2z" fill="#FDFDFD"/>
</svg>
